{"accessors" : [{"bufferView" : 0, "byteOffset" : 0, "componentType" : 5123, "count" : 12, "type" : "SCALAR", "max" : [9], "min" : [0]}, {"bufferView" : 1, "byteOffset" : 0, "componentType" : 5126, "count" : 10, "type" : "VEC3", "max" : [1, 1.80320398612821E-08, 11.951099395751953], "min" : [-11.95110034942627, -4.968979396835493E-07, -1], "name" : "POSITION"}, {"bufferView" : 1, "byteOffset" : 12, "componentType" : 5126, "count" : 10, "type" : "VEC3", "max" : [0, 1.0000044107437134, 3.090874756139783E-08], "min" : [-1.2802830795521913E-08, 1.0000044107437134, -0], "name" : "NORMAL"}, {"bufferView" : 1, "byteOffset" : 24, "componentType" : 5126, "count" : 10, "type" : "VEC2", "max" : [1, 1], "min" : [0, 0], "name" : "TEXCOORD_0"}, {"bufferView" : 0, "byteOffset" : 24, "componentType" : 5123, "count" : 12, "type" : "SCALAR", "max" : [9], "min" : [0]}, {"bufferView" : 2, "byteOffset" : 0, "componentType" : 5126, "count" : 10, "type" : "VEC3", "max" : [11.95109748840332, 4.968979396835493E-07, 1], "min" : [-1, -1.80320398612821E-08, -11.951098442077637], "name" : "POSITION"}, {"bufferView" : 2, "byteOffset" : 12, "componentType" : 5126, "count" : 10, "type" : "VEC3", "max" : [0, 1.0000044107437134, 3.090875466682519E-08], "min" : [-1.2802831683700333E-08, 1.0000044107437134, -0], "name" : "NORMAL"}, {"bufferView" : 2, "byteOffset" : 24, "componentType" : 5126, "count" : 10, "type" : "VEC2", "max" : [1, 1], "min" : [0, 0], "name" : "TEXCOORD_0"}, {"bufferView" : 0, "byteOffset" : 48, "componentType" : 5123, "count" : 54, "type" : "SCALAR", "max" : [46], "min" : [0]}, {"bufferView" : 3, "byteOffset" : 0, "componentType" : 5126, "count" : 47, "type" : "VEC3", "max" : [1, 1, 1], "min" : [-1, -42.559974670410156, -1], "name" : "POSITION"}, {"bufferView" : 3, "byteOffset" : 12, "componentType" : 5126, "count" : 47, "type" : "VEC3", "max" : [0.7071098685264587, 1.0000042915344238, 0.7071098685264587], "min" : [-0.7071098685264587, -1.0000044107437134, -0.7071098685264587], "name" : "NORMAL"}, {"bufferView" : 3, "byteOffset" : 24, "componentType" : 5126, "count" : 47, "type" : "VEC2", "max" : [0.9900000095367432, 1], "min" : [0.01000000536441803, 0], "name" : "TEXCOORD_0"}], "asset" : {"generator" : "Aspose.3D 21.12", "version" : "2.0"}, "buffers" : [{"uri" : "data:application/octet-stream;base64,", "byteLength" : 2668}], "bufferViews" : [{"buffer" : 0, "byteOffset" : 0, "byteLength" : 156, "target" : 34963}, {"buffer" : 0, "byteOffset" : 160, "byteLength" : 384, "byteStride" : 32, "target" : 34962}, {"buffer" : 0, "byteOffset" : 548, "byteLength" : 384, "byteStride" : 32, "target" : 34962}, {"buffer" : 0, "byteOffset" : 936, "byteLength" : 1728, "byteStride" : 32, "target" : 34962}], "materials" : [{"name" : "Material.002", "pbrMetallicRoughness" : {"baseColorFactor" : [1, 1, 1, 1], "metallicFactor" : 0, "roughnessFactor" : 0.5}, "emissiveFactor" : [0, 0, 0], "alphaMode" : "OPAQUE", "doubleSided" : true}, {"name" : "Material.003", "pbrMetallicRoughness" : {"baseColorFactor" : [1, 1, 1, 1], "metallicFactor" : 0, "roughnessFactor" : 0.5}, "emissiveFactor" : [0, 0, 0], "alphaMode" : "OPAQUE", "doubleSided" : true}, {"name" : "Material.001", "pbrMetallicRoughness" : {"baseColorFactor" : [1, 1, 1, 1], "metallicFactor" : 0, "roughnessFactor" : 0.5}, "emissiveFactor" : [0, 0, 0], "alphaMode" : "OPAQUE", "doubleSided" : true}], "meshes" : [{"primitives" : [{"attributes" : {"POSITION" : 1, "NORMAL" : 2, "TEXCOORD_0" : 3}, "indices" : 0, "material" : 0, "mode" : 4}]}, {"primitives" : [{"attributes" : {"POSITION" : 5, "NORMAL" : 6, "TEXCOORD_0" : 7}, "indices" : 4, "material" : 1, "mode" : 4}]}, {"primitives" : [{"attributes" : {"POSITION" : 9, "NORMAL" : 10, "TEXCOORD_0" : 11}, "indices" : 8, "material" : 2, "mode" : 4}]}], "nodes" : [{"matrix" : [-1.907895824553332E-08, -0.14200002372812054, 0, 0, 0.14200002372812054, -1.907895824553332E-08, 0, 0, 0, 0, 0.1420000046491623, 0, 0, 4.199999809265137, -2, 1], "mesh" : 0, "name" : "sign1"}, {"matrix" : [-1.907895824553332E-08, -0.14200002372812054, 0, 0, 0.14200002372812054, -1.907895824553332E-08, 0, 0, 0, 0, 0.1420000046491623, 0, 0, 4.599999904632568, 2, 1], "mesh" : 1, "name" : "sign 2"}, {"matrix" : [0.20506095017653314, 0, -0.20506096699530596, 0, 0, 0.125, 0, 0, 0.20506096699530596, 0, 0.20506095017653314, 0, 0, 5.119997024536133, 0, 1], "mesh" : 2, "name" : "post"}], "scene" : 0, "scenes" : [{"nodes" : [0, 1, 2]}]}